<?xml version="1.0" standalone="no"?>
<!DOCTYPE svg PUBLIC "-//W3C//DTD SVG 20010904//EN"
 "http://www.w3.org/TR/2001/REC-SVG-20010904/DTD/svg10.dtd">
<svg version="1.0" xmlns="http://www.w3.org/2000/svg"
 width="500.000000pt" height="500.000000pt" viewBox="0 0 500.000000 500.000000"
 preserveAspectRatio="xMidYMid meet">
<metadata>
Created by potrace 1.16, written by Peter Selinger 2001-2019
</metadata>
<g transform="translate(0.000000,500.000000) scale(0.100000,-0.100000)"
fill="#000000" stroke="none">
<path d="M1330 4225 c-126 -36 -257 -136 -347 -267 -51 -74 -109 -177 -102
-182 2 -1 51 -8 109 -14 58 -6 115 -14 126 -18 17 -4 26 2 45 33 38 63 131
153 184 181 142 72 334 17 552 -158 224 -181 466 -308 705 -369 257 -66 484
-61 736 15 120 36 287 118 412 202 l105 70 12 -57 c6 -31 17 -109 24 -174 14
-137 1 -133 149 -54 l96 50 -8 76 c-13 134 -39 272 -80 441 -23 91 -42 167
-44 169 -2 2 -47 -37 -101 -86 -177 -161 -285 -238 -441 -317 -170 -85 -302
-122 -472 -132 -307 -19 -608 97 -951 364 -123 96 -255 171 -361 207 -104 35
-261 44 -348 20z"/>
<path d="M890 2807 c0 -29 89 -313 143 -458 192 -509 427 -901 802 -1339 122
-142 206 -233 211 -228 2 2 19 73 39 158 78 336 122 467 220 665 97 195 214
335 283 335 131 0 154 -190 77 -610 -18 -95 -25 -168 -25 -255 0 -118 1 -124
33 -186 58 -116 156 -154 293 -114 102 30 145 59 265 182 333 341 582 734 736
1168 48 134 100 321 91 330 -2 2 -61 -20 -131 -50 -70 -30 -131 -55 -135 -55
-5 0 -30 -60 -56 -132 -66 -185 -207 -467 -315 -630 -200 -302 -481 -604 -531
-573 -16 10 -12 69 21 285 56 368 50 603 -16 716 -82 140 -255 197 -430 143
-59 -18 -76 -29 -149 -102 -143 -144 -250 -332 -345 -612 -23 -66 -44 -126
-46 -134 -6 -16 -57 47 -184 224 -228 319 -435 738 -546 1100 -20 66 -40 127
-44 135 -9 16 -88 34 -193 45 -57 6 -68 5 -68 -8z"/>
</g>
</svg>
